# File created by Blade
# Date/Time:  Wed Jan 21 17:05:57 2015
# Frame Rate: 120.000 fps
#------------------------------------------------------
:FULLY-SPECIFIED
:DEGREES
646
root 19.920719 35.536749 -23.356114 -172.661381 0.540300 -178.993769
Spine -17.702703 -0.379303 1.211867
Head 6.903949 0.505895 -0.439789
LeftShoulder -14.707646 -30.473869 20.133982
LeftArm 0.087773 -0.445367 -8.483469
LeftForeArm 11.747445 -0.000000 -3.455544
LeftHand -7.361595 -0.000000 -0.247972
LeftHandThumb1 -26.253704 0.000000 33.147579
RightShoulder -12.239667 -5.246724 -10.685074
RightArm 6.107309 41.880353 12.871356
RightForeArm -36.061359 -0.000000 4.499354
RightHand -6.117830 -0.000000 2.560097
RightHandThumb1 -24.326973 -0.000000 -32.862282
LeftUpLeg 2.488089 14.084051 3.828299
LeftLeg -6.160151 -0.000000 0.000000
LeftFoot -19.332558 24.433063 -16.867091
LeftToeBase 24.363355 -0.000000 -0.000000
RightUpLeg 0.585557 -12.911461 -0.210627
RightLeg -3.830784 -0.000000 0.000000
RightFoot -20.966473 -29.196284 17.278931
RightToeBase 22.891407 -0.000000 -0.000000
647
root 19.917261 35.534978 -23.362370 -172.640770 0.519282 -178.996973
Spine -17.690825 -0.374152 1.231707
Head 6.888597 0.483047 -0.483685
LeftShoulder -14.719567 -30.461101 20.142562
LeftArm 0.134001 -0.416372 -8.512538
LeftForeArm 11.682885 -0.000000 -3.468696
LeftHand -7.359672 0.000000 -0.261539
LeftHandThumb1 -26.253704 0.000000 33.147579
RightShoulder -12.214598 -5.273993 -10.698805
RightArm 6.165322 41.922150 12.855575
RightForeArm -36.037411 -0.000000 4.456151
RightHand -6.051864 -0.000000 2.608320
RightHandThumb1 -24.326973 -0.000000 -32.862282
LeftUpLeg 2.485734 14.070700 3.820071
LeftLeg -6.181646 -0.000000 0.000000
LeftFoot -19.332106 24.415681 -16.857727
LeftToeBase 24.362508 -0.000000 -0.000000
RightUpLeg 0.578726 -12.929242 -0.213341
RightLeg -3.834034 -0.000000 0.000000
RightFoot -20.969525 -29.207018 17.239801
RightToeBase 22.874134 -0.000000 -0.000000
648
root 19.913064 35.533555 -23.368714 -172.621348 0.488307 -179.004650
Spine -17.682133 -0.389359 1.243504
Head 6.887790 0.503577 -0.477339
LeftShoulder -14.740339 -30.453880 20.165359
LeftArm 0.170761 -0.417705 -8.532584
LeftForeArm 11.747936 -0.000000 -3.448141
LeftHand -7.268960 -0.000000 -0.404449
LeftHandThumb1 -26.253704 0.000000 33.147579
RightShoulder -12.235644 -5.323587 -10.694773
RightArm 6.331912 42.009057 12.918714
RightForeArm -36.101578 -0.000000 4.406886
RightHand -5.965095 -0.000000 2.485830
RightHandThumb1 -24.326973 -0.000000 -32.862282
LeftUpLeg 2.482148 14.031211 3.806080
LeftLeg -6.203175 -0.000000 0.000000
LeftFoot -19.332964 24.432885 -16.856532
LeftToeBase 24.314060 -0.000000 -0.000000
RightUpLeg 0.579317 -12.955593 -0.222956
RightLeg -3.842613 -0.000000 0.000000
RightFoot -20.979232 -29.208081 17.238211
RightToeBase 22.926223 -0.000000 -0.000000
649
root 19.908094 35.532071 -23.374224 -172.609479 0.477735 -179.009292
Spine -17.654486 -0.366597 1.258196
Head 6.869360 0.529581 -0.487425
LeftShoulder -14.736215 -30.454984 20.171333
LeftArm 0.201233 -0.391548 -8.565269
LeftForeArm 11.608196 -0.000000 -3.450787
LeftHand -7.259492 -0.000000 -0.293499
LeftHandThumb1 -26.253704 0.000000 33.147579
RightShoulder -12.205609 -5.230301 -10.731884
RightArm 6.287412 41.809237 12.837365
RightForeArm -35.961884 -0.000000 4.391160
RightHand -5.930018 -0.000000 2.426566
RightHandThumb1 -24.326973 -0.000000 -32.862282
LeftUpLeg 2.482146 14.030456 3.795225
LeftLeg -6.210301 -0.000000 0.000000
LeftFoot -19.338763 24.417449 -16.832176
LeftToeBase 24.342853 -0.000000 -0.000000
RightUpLeg 0.573150 -12.957190 -0.233840
RightLeg -3.834807 -0.000000 0.000000
RightFoot -20.994806 -29.223414 17.230997
RightToeBase 22.947912 -0.000000 -0.000000
650
root 19.904113 35.531056 -23.380425 -172.587264 0.464688 -179.018019
Spine -17.655475 -0.338787 1.265174
Head 6.888960 0.505404 -0.536546
LeftShoulder -14.705094 -30.441109 20.136497
LeftArm 0.249426 -0.374221 -8.545967
LeftForeArm 11.626470 -0.000000 -3.467820
LeftHand -7.249371 0.000000 -0.309873
LeftHandThumb1 -26.253704 0.000000 33.147579
RightShoulder -12.239589 -5.352008 -10.770078
RightArm 6.430170 41.932698 12.982669
RightForeArm -36.061172 0.000000 4.476072
RightHand -6.075720 -0.000000 2.483487
RightHandThumb1 -24.326973 -0.000000 -32.862282
LeftUpLeg 2.474466 14.036096 3.778285
LeftLeg -6.224659 -0.000000 0.000000
LeftFoot -19.332811 24.404526 -16.834867
LeftToeBase 24.380808 -0.000000 -0.000000
RightUpLeg 0.567091 -12.959382 -0.245273
RightLeg -3.842295 -0.000000 0.000000
RightFoot -21.011517 -29.242309 17.232174
RightToeBase 22.924785 -0.000000 -0.000000
651
root 19.899642 35.529505 -23.386623 -172.565966 0.441796 -179.021575
Spine -17.644698 -0.325134 1.279525
Head 6.861991 0.456133 -0.567799
LeftShoulder -14.708497 -30.427098 20.136239
LeftArm 0.299141 -0.339892 -8.565250
LeftForeArm 11.637037 -0.000000 -3.457304
LeftHand -7.279125 0.000000 -0.257193
LeftHandThumb1 -26.253704 0.000000 33.147579
RightShoulder -12.227615 -5.359595 -10.755499
RightArm 6.437016 41.916987 12.897350
RightForeArm -35.987805 0.000000 4.472759
RightHand -6.067533 -0.000000 2.510725
RightHandThumb1 -24.326973 -0.000000 -32.862282
LeftUpLeg 2.470134 14.009601 3.766577
LeftLeg -6.246965 -0.000000 0.000000
LeftFoot -19.334426 24.415681 -16.813740
LeftToeBase 24.395829 -0.000000 -0.000000
RightUpLeg 0.561417 -12.983051 -0.252993
RightLeg -3.846353 -0.000000 0.000000
RightFoot -21.018548 -29.211950 17.284010
RightToeBase 22.831294 -0.000000 -0.000000
652
root 19.894450 35.528090 -23.393346 -172.550929 0.417104 -179.038348
Spine -17.626548 -0.315405 1.274611
Head 6.841233 0.449253 -0.576041
LeftShoulder -14.706748 -30.410422 20.146694
LeftArm 0.333679 -0.316876 -8.592897
LeftForeArm 11.642647 -0.000000 -3.425996
LeftHand -7.304350 -0.000000 -0.219374
LeftHandThumb1 -26.253704 0.000000 33.147579
RightShoulder -12.244032 -5.421244 -10.748037
RightArm 6.527684 42.015413 12.912399
RightForeArm -36.045924 -0.000000 4.429954
RightHand -5.960593 -0.000000 2.438925
RightHandThumb1 -24.326973 -0.000000 -32.862282
LeftUpLeg 2.460169 13.995321 3.742270
LeftLeg -6.245900 -0.000000 0.000000
LeftFoot -19.335565 24.405909 -16.804401
LeftToeBase 24.349053 -0.000000 -0.000000
RightUpLeg 0.566004 -12.990135 -0.273700
RightLeg -3.858027 -0.000000 0.000000
RightFoot -21.034558 -29.269348 17.221914
RightToeBase 22.996386 -0.000000 -0.000000
